<svg viewBox="0 0 566 467" xmlns="http://www.w3.org/2000/svg"><title>Imported Layers</title><g fill="none" fill-rule="evenodd"><path d="M125.35 151.81c5.178 2.71 9.91 5.225 15.38 7 .444.196.838.345 1.282.492 7.295 12.964 11.534 35.785 19.766 40.813 13.31 9.858 20.012-4.386 33.32-3.303 8.874 1.085 38.842 22.97 24.4 26.273L217.28 222c-18.88-24.103-29.97-1.083-52.15 1.085-17.4 1.922-34.75-11.88-46.236-25.583-1.725 4.043-3.35 8.085-3.796 12.52-.837 9.17 1.775 17.5 2.613 25.83 3.008 17.35 7.247 32.68 15.38 46.875 48.848-6.358 87.443 27.456 113.814 64.67-4.83 1.874-9.76 4.437-14.442 5.572l-.197.245c-11.78-8.676-20.554-21.147-34.307-24.942-17.992-5.52-42.243-3.155-60.235-.788-21.59 2.365-44.953 9.513-59.346-9.514-6.31-7.885-4.535-29.28-4.535-39.58-.888-11.09-1.775-22.97 0-34.06 4.535-22.18 12.618-49.144 22.527-69.747 4.927-9.416 15.673-27.604 26.418-29.822.395-.097.79-.147 1.184-.196l.296 6.703c.393.197.74.394 1.083.543" fill="#000"/><path d="M198.45 51.55c33.864 15.725 39.09 45.547 24.597 73.643l-5.028-1.972c4.337-8.576-6.162-14.64-8.627-20.652-2.02 2.168-4.288 3.45-5.125 6.358-1.48-6.358-.198-13.9-3.895-19.47-3.5 2.02-7.788 3.746-11.682 5.225-.59-1.035-1.084-2.07-1.675-3.056-3.056 3.007-5.816 7.05-9.464 9.613 2.12-11.535-3.45-6.31-8.23-7.542-6.95-1.823-7.395.592-14-5.422-2.414 4.683-6.85 10.55-9.956 14.147 2.02-18.78-6.852-5.62-12.373 1.28-4.286-3.45-2.907-8.822-7.59-12.076-1.724 3.402-1.724 7.74-1.478 11.78-5.915-.146-10.45-4.73-12.077-9.71l-2.07-.64c3.056-10.105 8.034-19.618 13.16-26.173 13.36-17.547 53.335-25.187 75.516-15.33" fill="#1A1918"/><path d="M142.012 159.302c-.444-.147-.838-.296-1.282-.493-5.47-1.775-10.202-4.29-15.38-7 7.396-4.092 12.522.1 16.662 7.492" fill="#000"/><path d="M125.598 144.514c-.543-.05-1.084-.05-1.626.05-.395.05-.79.1-1.183.197-10.747 2.22-21.493 20.407-26.42 29.823-9.91 20.603-17.993 47.566-22.528 69.747-1.775 11.09-.888 22.97 0 34.06 0 10.3-1.775 31.695 4.535 39.58 14.393 19.028 37.757 11.88 59.346 9.515 17.992-2.367 42.243-4.732 60.235.788 13.753 3.795 22.526 16.266 34.307 24.942.197.197.443.344.69.54.295.2.64.446.985.692" stroke="#1A1918" stroke-width="2.568"/><path d="M121.852 141.31c-17.203-9.217-17.746-29.82-12.076-48.255 3.055-10.106 8.033-19.62 13.16-26.174 13.358-17.547 53.334-25.187 75.515-15.33 33.864 15.725 39.09 45.547 24.597 73.643-1.676 3.203-3.55 6.407-5.718 9.513-20.8 30.264-42.687 38.152-75.318 24.596-.444-.147-.838-.296-1.282-.493-5.47-1.775-10.202-4.29-15.38-7-.343-.15-.69-.346-1.082-.543-.79-.394-1.578-.838-2.416-1.232" stroke="#1A1918" stroke-width="3.353"/><path d="M122.936 184.194c-.443 4.732-2.267 9.02-4.042 13.308-1.725 4.043-3.35 8.085-3.796 12.52-.837 9.17 1.775 17.5 2.613 25.83 3.008 17.35 7.247 32.68 15.38 46.875 3.55 6.212 7.886 12.226 13.16 18.09" stroke="#1A1918" stroke-width="2.582"/><path d="M110.712 288.298c7.69-2.81 15.132-4.633 22.378-5.57 48.848-6.36 87.443 27.455 113.814 64.67.148.148.246.296.345.444" stroke="#1A1918" stroke-width="2.864"/><path d="M114.063 191.34c1.48 2.022 3.057 4.093 4.83 6.162 11.486 13.703 28.836 27.505 46.236 25.583 22.18-2.168 33.27-25.188 52.15-1.084m-99.865-63.487c2.908-3.203 5.52-5.372 7.936-6.703 7.396-4.092 12.522.1 16.662 7.492 7.295 12.964 11.534 35.785 19.766 40.813 13.31 9.858 20.012-4.386 33.32-3.303 8.874 1.085 38.842 22.97 24.4 26.273M111.845 93.695c1.627 4.978 6.162 9.563 12.077 9.71-.246-4.042-.246-8.38 1.48-11.78 4.68 3.253 3.302 8.626 7.59 12.076 5.52-6.9 14.393-20.06 12.372-1.28 3.105-3.598 7.542-9.464 9.957-14.147 6.605 6.014 7.05 3.6 14 5.422 4.78 1.232 10.35-3.993 8.23 7.542 3.65-2.564 6.41-6.606 9.465-9.613.59.986 1.084 2.02 1.676 3.057 3.895-1.478 8.183-3.203 11.683-5.224 3.697 5.57 2.415 13.112 3.895 19.47.837-2.908 3.104-4.19 5.125-6.358 2.465 6.013 12.964 12.076 8.626 20.653m-5.03 20.506c1.974-.345 5.226 5.077 4.438 6.95-1.035 2.17-6.556 2.81-8.428 2.81-.248-.098-.84-.494-1.135-.69-.1-.69-.296-1.135-.443-1.775m25.04 201.95c4.683-1.136 9.612-3.7 14.442-5.572 7.246-2.91 14.196-4.386 19.57 2.662-8.874 2.91-35.49 27.702-34.012 4.387" stroke="#1A1918" stroke-width="3.353"/><path d="M549.075 34.92c1.183 94.69 16.316 186.963 14.788 282.095 0 46.53-13.653 90.302-14.788 135.06V34.92M549.075 456.708v8.182c-.098-2.76-.147-5.47-.098-8.182h.098M549.075 452.074v4.634h-.098c0-1.53.05-3.106.098-4.634" fill="#1A1918"/><path d="M549.075 34.92v417.154c-.05 1.528-.098 3.104-.098 4.634-56.833 0-112.73.837-168.132 1.626l-3.205.05-35.588.344v-.394l-1.43-78.078c1.38-12.422 3.155-24.744 4.732-36.92 1.528-15.625 4.585-46.086-4.978-58.952l4.978-.197c-1.675 0-3.4 0-5.077.05-.444-.642-.936-1.184-1.48-1.725l.05 1.725c-19.52.197-38.79 1.232-58.164 2.365l-1.28.05-34.308 1.232.05-.444c-.098.148-.148.296-.247.444l-32.237 1.232h-3.696c0-23.018 0-47.665-3.253-70.684l1.628-3.253 8.43-.198c28.49.197 55.55 8.232 82.61 6.752 22.33-1.626 42.737-6.555 65.066-9.858l-20.95.444c17.303-45.3 34.603-92.372 48.208-139.495 3.105-10.795 5.275-24.252 7.837-37.067l10.4-32.68.493.147 88.823 4.24c16.414 1.28 32.78 2.316 49.193 2.316h1.625c-.147 8.38-.147 16.81 0 25.14" fill="#1A1918"/><path d="M549.075 9.78v25.14c-.147-8.33-.147-16.76 0-25.14M548.977 456.708l-168.132 1.626c55.403-.79 111.3-1.626 168.132-1.626M498.256 7.464L547.45 9.78c-16.415 0-32.78-1.034-49.194-2.316M498.256 7.464l-88.823-4.24c29.575-1.083 59.2 1.924 88.823 4.24M409.433 1.55l-.493 1.528-10.4 32.68c2.662-13.26 5.816-25.828 10.893-34.21M342.445 212.32L398.54 35.758c-2.563 12.815-4.733 26.272-7.838 37.067-13.605 47.123-30.905 94.196-48.207 139.495h-.05M342.052 458.728l35.588-.345c-47.517.69-94.74 1.38-141.86 1.528v-.147l106.272-1.034" fill="#1A1918"/><path d="M342.495 212.32l20.95-.444c-22.33 3.303-42.736 8.232-65.066 9.858-27.062 1.48-54.122-6.555-82.613-6.752l126.678-2.662-.393 1.182.443-1.182M340.376 284.384c9.563 12.866 6.506 43.327 4.978 58.952-1.577 12.176-3.352 24.498-4.732 36.92l-1.774-95.822 1.528-.05M345.354 284.187l-4.978.197c0-.05-.05-.1-.1-.147 1.678-.05 3.403-.05 5.078-.05" fill="#1A1918"/><path d="M342.495 212.32c-.148.395-.295.79-.443 1.182l.393-1.182h.05M340.622 380.256l1.43 78.078c-5.52-25.632-4.34-51.954-1.43-78.078M340.277 284.237c.05.048.1.098.1.147l-1.53.05v-.197h1.43M340.277 284.237h-1.43l-.05-1.725c.544.54 1.036 1.083 1.48 1.725" fill="#1A1918"/><path d="M338.848 284.237v.197l-58.165 2.168c19.373-1.133 38.645-2.168 58.165-2.365M245.095 287.884l34.308-1.232c-11.338.64-22.773 1.28-34.308 1.725v-.493M245.145 287.44l-.05.444h-.197c.1-.148.15-.296.247-.444M245.095 287.884v.493c-.147 0-.296.05-.443 0 .1-.197.147-.346.246-.493h.197" fill="#1A1918"/><path d="M245.095 288.377l-9.02 163.647c.937-50.82-13.16-123.13 8.577-163.647.147.05.296 0 .443 0M244.898 287.884c-.1.147-.147.296-.246.493-10.154.443-20.407.69-30.807.74h-1.184l32.238-1.233" fill="#1A1918"/><path d="M244.652 288.377c-21.738 40.517-7.64 112.828-8.578 163.647v.445l-.393 7.293-5.323.05-16.464-165.768-.048-4.93c10.4-.05 20.653-.295 30.807-.738" fill="#1A1918"/><path d="M235.68 459.763l.394-7.294c-.048 2.513-.147 4.927-.294 7.293h-.1M235.78 459.763v.148h-.15l.05-.147h.1" fill="#1A1918"/><path d="M235.63 459.91h.15c-.1 2.27-.296 4.487-.493 6.655l.344-6.654" fill="#1A1918"/><path d="M235.68 459.763l-.05.148c-1.773 0-3.5.05-5.273 0v-.098l5.324-.05M230.357 459.812v.1c-.05-.05-.05-.05-.05-.1h.05M213.893 294.045l16.464 165.767h-.05c-16.414-54.17-16.414-108.342-16.414-165.767" fill="#1A1918"/><path d="M230.307 459.812c0 .05 0 .05.05.1-4.93.048-9.858.048-14.787.048l14.737-.148M215.767 214.982l-8.43.197c2.81-.148 5.62-.198 8.43-.198M208.964 289.116l-3.253-70.684c3.254 23.02 3.254 47.666 3.254 70.684" fill="#1A1918"/><path d="M409.433 3.225c29.575-1.084 59.2 1.923 88.823 4.24 16.414 1.28 32.78 2.316 49.193 2.316" stroke="#1A1918" stroke-width="3.218"/><path d="M342.495 212.32c17.302-45.3 34.602-92.372 48.207-139.495 3.105-10.795 5.275-24.252 7.837-37.067 2.662-13.26 5.816-25.828 10.893-34.21" stroke="#1A1918" stroke-width="3.445"/><path d="M207.338 215.18c2.81-.148 5.62-.198 8.43-.198 28.49.197 55.55 8.232 82.61 6.752 22.33-1.626 42.737-6.555 65.066-9.858" stroke="#1A1918" stroke-width="3.987"/><path d="M340.277 284.237c-.444-.642-.936-1.184-1.48-1.725m3.255 175.822c-5.52-25.632-4.34-51.954-1.43-78.078 1.38-12.422 3.155-24.744 4.732-36.92 1.528-15.625 4.585-46.086-4.978-58.952M549.076 9.78c-.148 8.38-.148 16.81 0 25.14 1.182 94.69 16.315 186.963 14.787 282.095 0 46.53-13.653 90.302-14.788 135.06-.05 1.527-.098 3.104-.098 4.633-.05 2.71 0 5.42.098 8.182M213.893 294.045c0 57.425 0 111.597 16.414 165.767m.05.148v-.05m5.423 0c-.1 2.27-.296 4.487-.493 6.655m.787-14.096c-.048 2.513-.147 4.927-.294 7.293m8.872-171.386c-21.738 40.517-7.64 112.828-8.578 163.647m9.07-164.584c-.097.148-.147.296-.246.444m-8.824 164.585v-.446" stroke="#1A1918" stroke-width="3.749"/><path d="M377.64 458.383c-47.517.69-94.74 1.38-141.86 1.528h-.15c-1.773 0-3.5.05-5.273 0-4.93.05-9.858.05-14.787.05m333.407-3.252c-56.833 0-112.73.837-168.132 1.626m168.132-1.626h.098m-171.435 1.675l3.205-.05" stroke="#1A1918" stroke-width="5.794"/><path d="M280.683 286.602c19.373-1.133 38.645-2.168 58.165-2.365h1.43c1.676-.05 3.4-.05 5.076-.05m-132.693 4.93h1.185c10.4-.05 20.653-.297 30.807-.74.147.05.296 0 .443 0 11.535-.444 22.97-1.085 34.308-1.725m-66.742 2.464h-.393m68.416-2.514l-1.28.05m-73.692-68.22c3.254 23.02 3.254 47.666 3.254 70.684" stroke="#1A1918" stroke-width="3.749"/><path d="M23.333 361.368v.048c-3.4 2.564-6.014 3.746-8.083 3.994-9.81 1.133-6.902-19.717-6.753-30.907 50.572 5.72 95.082-3.055 142.895-4.238l.1 3.204c3.252 11.484 3.252 21.342-6.607 26.27l-11.583.642c-6.95-.592-14.048-.888-21.245-1.035-24.25-.543-49.438 1.083-73.937 1.774-4.978.15-9.907.248-14.787.248" fill="#1A1918"/><path d="M133.696 360.43l-.296 2.91c0 32.877-4.93 67.38-3.302 100.257h-4.928c-9.17-3.055-13.113-88.723-13.113-101.885v-2.365c7.197.147 14.295.443 21.245 1.035.148 0 .247.048.394.048M38.12 361.12c-.098 31.843-1.824 63.685-6.605 95.577-4.93 1.627 3.303 4.93-6.555 6.556l-3.303-4.93c0-9.66.444-30.165-1.627-42.686-3.154-18.927-3.795-31.054-4.78-50.227 2.07-.248 4.682-1.43 8.083-3.994v-.048c4.88 0 9.81-.1 14.787-.247" fill="#1A1918"/><path d="M.314 333.47c2.76.393 5.472.738 8.183 1.033 50.572 5.72 95.082-3.055 142.895-4.238 3.303-.05 6.605-.1 9.957-.1m-142.946 31.25c1.626 0 3.253 0 4.93-.047 4.88 0 9.808-.1 14.786-.247 24.5-.69 49.687-2.316 73.937-1.773 7.197.147 14.295.443 21.245 1.035.148 0 .247.048.394.048 3.204.248 6.41.592 9.563.986m8.23-27.947c3.254 11.484 3.254 21.342-6.605 26.27M8.545 333.47c0 .343 0 .69-.048 1.033-.15 11.19-3.057 32.04 6.753 30.907 2.07-.248 4.682-1.43 8.083-3.994M133.4 363.34c0 32.877-4.93 67.38-3.302 100.257m-18.04-101.885c0 13.162 3.943 98.83 13.112 101.885m-103.513-5.273c0-9.662.444-30.166-1.627-42.687-3.154-18.927-3.795-31.054-4.78-50.227l-.15-2.367m23.02-4.93v3.008c-.098 31.843-1.824 63.685-6.605 95.577-4.93 1.627 3.303 4.93-6.555 6.556" stroke="#1A1918" stroke-width="3.749"/><text font-family="DIN Condensed" font-size="68" font-weight="bold" fill="#FFF" transform="translate(0 1.24)"><tspan x="219.65" y="272.387">Hannah’s Studio</tspan></text></g></svg>