<?xml version="1.0" encoding="UTF-8" standalone="no"?>
<svg width="566px" height="467px" viewBox="0 0 566 467" version="1.1" xmlns="http://www.w3.org/2000/svg" xmlns:xlink="http://www.w3.org/1999/xlink" xmlns:sketch="http://www.bohemiancoding.com/sketch/ns">
    <!-- Generator: Sketch 3.3.3 (12072) - http://www.bohemiancoding.com/sketch -->
    <title>Imported Layers</title>
    <desc>Created with Sketch.</desc>
    <defs></defs>
    <g id="Page-1" stroke="none" stroke-width="1" fill="none" fill-rule="evenodd" sketch:type="MSPage">
        <g id="Imported-Layers" sketch:type="MSLayerGroup" transform="translate(0.000000, 1.240741)">
            <path d="M125.351074,150.569222 C130.5275,153.28037 135.259519,155.794296 140.730463,157.567981 C141.173556,157.765204 141.568,157.913778 142.012407,158.061037 C149.307,171.025111 153.545963,193.846352 161.778019,198.874204 C175.086574,208.732685 181.7895,194.487981 195.09937,195.571389 C203.971741,196.656111 233.940315,218.541204 219.498389,221.844019 L217.280296,220.760611 C198.40087,196.656111 187.310407,219.675889 165.129481,221.844019 C147.729222,223.766278 130.378926,209.964667 118.894019,196.261667 C117.168981,200.304722 115.542556,204.346463 115.098148,208.782648 C114.260611,217.950852 116.873148,226.280204 117.710685,234.61087 C120.717667,251.961167 124.95663,267.290593 133.090074,281.486648 C181.938074,275.128204 220.533148,308.942611 246.904389,346.15713 C242.073759,348.030741 237.144519,350.593315 232.462463,351.728 L232.265241,351.97387 C220.4845,343.298722 211.710741,330.827704 197.957778,327.031833 C179.965852,321.512241 155.715407,323.877593 137.723481,326.244259 C116.134222,328.609611 92.769963,335.756944 78.3766852,316.730259 C72.0668889,308.844 73.8418889,287.450648 73.8418889,277.149074 C72.9543889,266.058611 72.0668889,254.179259 73.8418889,243.088796 C78.3766852,220.90787 86.4601667,193.944963 96.3686111,173.341815 C101.296537,163.926426 112.042519,145.738593 122.7885,143.5205 C123.182944,143.421889 123.577389,143.371926 123.971833,143.323278 L124.267667,150.026204 C124.660796,150.223426 125.006593,150.420648 125.351074,150.569222" id="Fill-1" fill="#000000" sketch:type="MSShapeGroup"></path>
            <path d="M198.450833,50.3106481 C232.313889,66.0345185 237.538963,95.8558333 223.047074,123.952111 L218.019222,121.979889 C222.356796,113.403352 211.858,107.340741 209.392722,101.326778 C207.371852,103.494907 205.105111,104.776852 204.267574,107.685222 C202.788407,101.326778 204.070352,93.785 200.373093,88.2154444 C196.873056,90.2363148 192.585444,91.9613519 188.690963,93.4405185 C188.099296,92.4044444 187.606241,91.3696852 187.014574,90.3835741 C183.958944,93.3905556 181.199148,97.4322963 177.550537,99.9961852 C179.670019,88.4613148 174.100463,93.6863889 169.319796,92.4544074 C162.369685,90.6307593 161.925278,93.0460741 155.320963,87.0321111 C152.905648,91.7154815 148.469463,97.5808704 145.36387,101.179519 C147.384741,82.3987037 138.51237,95.56 132.991463,102.460148 C128.703852,99.0100741 130.083093,93.6377407 125.401037,90.3835741 C123.676,93.785 123.676,98.1225741 123.92187,102.164315 C118.006519,102.017056 113.471722,97.4322963 111.845296,92.4544074 L109.775778,91.8140926 C112.831407,81.7084259 117.809296,72.1957407 122.935759,65.6400741 C136.294278,48.0925556 176.269907,40.4521667 198.450833,50.3106481" id="Fill-2" fill="#1A1918" sketch:type="MSShapeGroup"></path>
            <path d="M142.012407,158.061037 C141.568,157.913778 141.173556,157.765204 140.730463,157.567981 C135.259519,155.794296 130.5275,153.28037 125.351074,150.569222 C132.745593,146.477519 137.872056,150.667833 142.012407,158.061037" id="Fill-3" fill="#000000" sketch:type="MSShapeGroup"></path>
            <path d="M125.598259,143.273315 C125.055241,143.224667 124.513537,143.224667 123.971833,143.323278 C123.577389,143.371926 123.182944,143.421889 122.7885,143.5205 C112.042519,145.738593 101.296537,163.926426 96.3686111,173.341815 C86.4601667,193.944963 78.3766852,220.90787 73.8418889,243.088796 C72.0668889,254.179259 72.9543889,266.058611 73.8418889,277.149074 C73.8418889,287.450648 72.0668889,308.844 78.3766852,316.730259 C92.769963,335.756944 116.134222,328.609611 137.723481,326.244259 C155.715407,323.877593 179.965852,321.512241 197.957778,327.031833 C211.710741,330.827704 220.4845,343.298722 232.265241,351.97387 C232.462463,352.171093 232.708333,352.318352 232.954204,352.515574 C233.250037,352.712796 233.595833,352.959981 233.940315,353.205852" id="Stroke-4" stroke="#1A1918" stroke-width="2.568" sketch:type="MSShapeGroup"></path>
            <path d="M121.852352,140.070426 C104.649315,130.852259 104.106296,110.249111 109.775778,91.8140926 C112.831407,81.7084259 117.809296,72.1957407 122.935759,65.6400741 C136.294278,48.0925556 176.269907,40.4521667 198.450833,50.3106481 C232.313889,66.0345185 237.538963,95.8558333 223.047074,123.952111 C221.370685,127.155 219.498389,130.359204 217.328944,133.464796 C196.528574,163.729204 174.643481,171.616778 142.012407,158.061037 C141.568,157.913778 141.173556,157.765204 140.730463,157.567981 C135.259519,155.794296 130.5275,153.28037 125.351074,150.569222 C125.006593,150.420648 124.660796,150.223426 124.267667,150.026204 C123.478778,149.631759 122.689889,149.188667 121.852352,148.794222" id="Stroke-5" stroke="#1A1918" stroke-width="3.353" sketch:type="MSShapeGroup"></path>
            <path d="M122.935759,182.953111 C122.492667,187.68513 120.669019,191.974056 118.894019,196.261667 C117.168981,200.304722 115.542556,204.346463 115.098148,208.782648 C114.260611,217.950852 116.873148,226.280204 117.710685,234.61087 C120.717667,251.961167 124.95663,267.290593 133.090074,281.486648 C136.638759,287.697833 140.976333,293.711796 146.25137,299.577185" id="Stroke-6" stroke="#1A1918" stroke-width="2.582" sketch:type="MSShapeGroup"></path>
            <path d="M110.711926,287.057519 C118.400963,284.247759 125.84413,282.424111 133.090074,281.486648 C181.938074,275.128204 220.533148,308.942611 246.904389,346.15713 C247.051648,346.305704 247.150259,346.452963 247.24887,346.601537" id="Stroke-7" stroke="#1A1918" stroke-width="2.864" sketch:type="MSShapeGroup"></path>
            <path d="M114.063389,190.100444 C115.542556,192.121315 117.120333,194.192148 118.894019,196.261667 C130.378926,209.964667 147.729222,223.766278 165.129481,221.844019 C187.310407,219.675889 198.40087,196.656111 217.280296,220.760611 M117.414852,157.272148 C120.323222,154.069259 122.935759,151.899815 125.351074,150.569222 C132.745593,146.477519 137.872056,150.667833 142.012407,158.061037 C149.307,171.025111 153.545963,193.846352 161.778019,198.874204 C175.086574,208.732685 181.7895,194.487981 195.09937,195.571389 C203.971741,196.656111 233.940315,218.541204 219.498389,221.844019 M111.845296,92.4544074 C113.471722,97.4322963 118.006519,102.017056 123.92187,102.164315 C123.676,98.1225741 123.676,93.785 125.401037,90.3835741 C130.083093,93.6377407 128.703852,99.0100741 132.991463,102.460148 C138.51237,95.56 147.384741,82.3987037 145.36387,101.179519 C148.469463,97.5808704 152.905648,91.7154815 155.320963,87.0321111 C161.925278,93.0460741 162.369685,90.6307593 169.319796,92.4544074 C174.100463,93.6863889 179.670019,88.4613148 177.550537,99.9961852 C181.199148,97.4322963 183.958944,93.3905556 187.014574,90.3835741 C187.606241,91.3696852 188.099296,92.4044444 188.690963,93.4405185 C192.585444,91.9613519 196.873056,90.2363148 200.373093,88.2154444 C204.070352,93.785 202.788407,101.326778 204.267574,107.685222 C205.105111,104.776852 207.371852,103.494907 209.392722,101.326778 C211.858,107.340741 222.356796,113.403352 218.019222,121.979889 M212.99137,142.485741 C214.963593,142.139944 218.216444,147.562241 217.427556,149.435852 C216.392796,151.603981 210.871889,152.244296 208.999593,152.244296 C208.752407,152.147 208.160741,151.751241 207.864907,151.555333 C207.766296,150.865056 207.569074,150.420648 207.421815,149.780333 M232.462463,351.728 C237.144519,350.593315 242.073759,348.030741 246.904389,346.15713 C254.150333,343.248759 261.100444,341.770907 266.472778,348.81963 C257.600407,351.728 230.983296,376.521463 232.462463,353.205852" id="Stroke-8" stroke="#1A1918" stroke-width="3.353" sketch:type="MSShapeGroup"></path>
            <path d="M549.07513,33.6795556 C550.258463,128.368574 565.390667,220.642278 563.862852,315.774389 C563.862852,362.305685 550.209815,406.07587 549.07513,450.833481 L549.07513,33.6795556" id="Fill-9" fill="#1A1918" sketch:type="MSShapeGroup"></path>
            <path d="M549.07513,455.466889 L549.07513,463.648981 C548.976519,460.88787 548.92787,458.178037 548.976519,455.466889 L549.07513,455.466889" id="Fill-10" fill="#1A1918" sketch:type="MSShapeGroup"></path>
            <path d="M549.07513,450.833481 L549.07513,455.466889 L548.976519,455.466889 C548.976519,453.937759 549.026481,452.361296 549.07513,450.833481" id="Fill-11" fill="#1A1918" sketch:type="MSShapeGroup"></path>
            <path d="M549.07513,33.6795556 L549.07513,450.833481 C549.026481,452.361296 548.976519,453.937759 548.976519,455.466889 C492.143648,455.466889 436.248241,456.304426 380.844574,457.093315 L377.64037,457.141963 L342.052278,457.487759 L342.052278,457.093315 L340.621759,379.015667 C342.002315,366.593296 343.777315,354.270852 345.353778,342.095667 C346.881593,326.470407 349.938537,296.008778 340.375889,283.143315 L345.353778,282.946093 C343.678704,282.946093 341.953667,282.946093 340.277278,282.996056 C339.83287,282.354426 339.34113,281.812722 338.798111,281.271019 L338.848074,282.996056 C319.328333,283.193278 300.055778,284.228037 280.683296,285.361407 L279.402667,285.41137 L245.095204,286.643352 L245.145167,286.198944 C245.046556,286.347519 244.996593,286.494778 244.897981,286.643352 L212.661352,287.875333 L208.964093,287.875333 C208.964093,264.85687 208.964093,240.210667 205.711241,217.190889 L207.337667,213.938037 L215.766944,213.740815 C244.257667,213.938037 271.31787,221.97287 298.379389,220.493704 C320.708889,218.867278 341.114815,213.938037 363.444315,210.635222 L342.49537,211.07963 C359.797019,165.780315 377.097352,118.707315 390.701741,71.5843519 C393.807333,60.7897222 395.976778,47.3325926 398.539352,34.5170926 L408.939537,1.83737037 L409.432593,1.98462963 L498.256222,6.22359259 C514.67037,7.50553704 531.034556,8.5402963 547.448704,8.5402963 L549.07513,8.5402963 C548.92787,16.9196111 548.92787,25.3488889 549.07513,33.6795556" id="Fill-12" fill="#1A1918" sketch:type="MSShapeGroup"></path>
            <path d="M549.07513,8.5402963 L549.07513,33.6795556 C548.92787,25.3488889 548.92787,16.9196111 549.07513,8.5402963" id="Fill-13" fill="#1A1918" sketch:type="MSShapeGroup"></path>
            <path d="M548.976519,455.466889 L380.844574,457.093315 C436.248241,456.304426 492.143648,455.466889 548.976519,455.466889" id="Fill-14" fill="#1A1918" sketch:type="MSShapeGroup"></path>
            <path d="M498.256222,6.22359259 L547.448704,8.5402963 C531.034556,8.5402963 514.67037,7.50553704 498.256222,6.22359259" id="Fill-15" fill="#1A1918" sketch:type="MSShapeGroup"></path>
            <path d="M498.256222,6.22359259 L409.432593,1.98462963 C439.008037,0.899907407 468.63213,3.90688889 498.256222,6.22359259" id="Fill-16" fill="#1A1918" sketch:type="MSShapeGroup"></path>
            <path d="M409.432593,0.308240741 L408.939537,1.83737037 L398.539352,34.5170926 C401.201852,21.2571852 404.356093,8.68887037 409.432593,0.308240741" id="Fill-17" fill="#1A1918" sketch:type="MSShapeGroup"></path>
            <path d="M342.445407,211.07963 L398.539352,34.5170926 C395.976778,47.3325926 393.807333,60.7897222 390.701741,71.5843519 C377.097352,118.707315 359.797019,165.780315 342.49537,211.07963 L342.445407,211.07963" id="Fill-18" fill="#1A1918" sketch:type="MSShapeGroup"></path>
            <path d="M342.052278,457.487759 L377.64037,457.141963 C330.122963,457.832241 282.901389,458.522519 235.779741,458.669778 L235.779741,458.522519 L342.052278,457.487759" id="Fill-19" fill="#1A1918" sketch:type="MSShapeGroup"></path>
            <path d="M342.49537,211.07963 L363.444315,210.635222 C341.114815,213.938037 320.708889,218.867278 298.379389,220.493704 C271.31787,221.97287 244.257667,213.938037 215.766944,213.740815 L342.445407,211.07963 L342.052278,212.261648 C342.199537,211.868519 342.346796,211.474074 342.49537,211.07963" id="Fill-20" fill="#1A1918" sketch:type="MSShapeGroup"></path>
            <path d="M340.375889,283.143315 C349.938537,296.008778 346.881593,326.470407 345.353778,342.095667 C343.777315,354.270852 342.002315,366.593296 340.621759,379.015667 L338.848074,283.193278 L340.375889,283.143315" id="Fill-21" fill="#1A1918" sketch:type="MSShapeGroup"></path>
            <path d="M345.353778,282.946093 L340.375889,283.143315 C340.375889,283.094667 340.325926,283.044704 340.277278,282.996056 C341.953667,282.946093 343.678704,282.946093 345.353778,282.946093" id="Fill-22" fill="#1A1918" sketch:type="MSShapeGroup"></path>
            <path d="M342.49537,211.07963 C342.346796,211.474074 342.199537,211.868519 342.052278,212.261648 L342.445407,211.07963 L342.49537,211.07963" id="Fill-23" fill="#1A1918" sketch:type="MSShapeGroup"></path>
            <path d="M340.621759,379.015667 L342.052278,457.093315 C336.53137,431.461 337.713389,405.139722 340.621759,379.015667" id="Fill-24" fill="#1A1918" sketch:type="MSShapeGroup"></path>
            <path d="M340.277278,282.996056 C340.325926,283.044704 340.375889,283.094667 340.375889,283.143315 L338.848074,283.193278 L338.848074,282.996056 L340.277278,282.996056" id="Fill-25" fill="#1A1918" sketch:type="MSShapeGroup"></path>
            <path d="M340.277278,282.996056 L338.848074,282.996056 L338.798111,281.271019 C339.34113,281.812722 339.83287,282.354426 340.277278,282.996056" id="Fill-26" fill="#1A1918" sketch:type="MSShapeGroup"></path>
            <path d="M338.848074,282.996056 L338.848074,283.193278 L280.683296,285.361407 C300.055778,284.228037 319.328333,283.193278 338.848074,282.996056" id="Fill-27" fill="#1A1918" sketch:type="MSShapeGroup"></path>
            <path d="M245.095204,286.643352 L279.402667,285.41137 C268.065019,286.051685 256.630074,286.692 245.095204,287.136407 L245.095204,286.643352" id="Fill-28" fill="#1A1918" sketch:type="MSShapeGroup"></path>
            <path d="M245.145167,286.198944 L245.095204,286.643352 L244.897981,286.643352 C244.996593,286.494778 245.046556,286.347519 245.145167,286.198944" id="Fill-29" fill="#1A1918" sketch:type="MSShapeGroup"></path>
            <path d="M245.095204,286.643352 L245.095204,287.136407 C244.947944,287.136407 244.79937,287.185056 244.652111,287.136407 C244.750722,286.939185 244.79937,286.790611 244.897981,286.643352 L245.095204,286.643352" id="Fill-30" fill="#1A1918" sketch:type="MSShapeGroup"></path>
            <path d="M245.095204,287.136407 L236.074259,450.783519 C237.011722,399.964611 222.914278,327.653741 244.652111,287.136407 C244.79937,287.185056 244.947944,287.136407 245.095204,287.136407" id="Fill-31" fill="#1A1918" sketch:type="MSShapeGroup"></path>
            <path d="M244.897981,286.643352 C244.79937,286.790611 244.750722,286.939185 244.652111,287.136407 C234.497796,287.5795 224.24487,287.82537 213.844685,287.875333 L212.661352,287.875333 L244.897981,286.643352" id="Fill-32" fill="#1A1918" sketch:type="MSShapeGroup"></path>
            <path d="M244.652111,287.136407 C222.914278,327.653741 237.011722,399.964611 236.074259,450.783519 L236.074259,451.227926 L235.68113,458.522519 L230.357444,458.571167 L213.893333,292.804574 L213.844685,287.875333 C224.24487,287.82537 234.497796,287.5795 244.652111,287.136407" id="Fill-33" fill="#1A1918" sketch:type="MSShapeGroup"></path>
            <path d="M235.68113,458.522519 L236.074259,451.227926 C236.025611,453.741852 235.927,456.155852 235.779741,458.522519 L235.68113,458.522519" id="Fill-34" fill="#1A1918" sketch:type="MSShapeGroup"></path>
            <path d="M235.779741,458.522519 L235.779741,458.669778 L235.631167,458.669778 L235.68113,458.522519 L235.779741,458.522519" id="Fill-35" fill="#1A1918" sketch:type="MSShapeGroup"></path>
            <path d="M235.631167,458.669778 L235.779741,458.669778 C235.68113,460.937833 235.483907,463.155926 235.286685,465.324056 L235.631167,458.669778" id="Fill-36" fill="#1A1918" sketch:type="MSShapeGroup"></path>
            <path d="M235.68113,458.522519 L235.631167,458.669778 C233.857481,458.669778 232.13113,458.719741 230.357444,458.669778 L230.357444,458.571167 L235.68113,458.522519" id="Fill-37" fill="#1A1918" sketch:type="MSShapeGroup"></path>
            <path d="M230.357444,458.571167 L230.357444,458.669778 C230.307481,458.62113 230.307481,458.62113 230.307481,458.571167 L230.357444,458.571167" id="Fill-38" fill="#1A1918" sketch:type="MSShapeGroup"></path>
            <path d="M213.893333,292.804574 L230.357444,458.571167 L230.307481,458.571167 C213.893333,404.400796 213.893333,350.229111 213.893333,292.804574" id="Fill-39" fill="#1A1918" sketch:type="MSShapeGroup"></path>
            <path d="M230.307481,458.571167 C230.307481,458.62113 230.307481,458.62113 230.357444,458.669778 C225.428204,458.719741 220.498963,458.719741 215.569722,458.719741 L230.307481,458.571167" id="Fill-40" fill="#1A1918" sketch:type="MSShapeGroup"></path>
            <path d="M215.766944,213.740815 L207.337667,213.938037 C210.147426,213.790778 212.957185,213.740815 215.766944,213.740815" id="Fill-41" fill="#1A1918" sketch:type="MSShapeGroup"></path>
            <path d="M208.964093,287.875333 L205.711241,217.190889 C208.964093,240.210667 208.964093,264.85687 208.964093,287.875333" id="Fill-42" fill="#1A1918" sketch:type="MSShapeGroup"></path>
            <path d="M409.432593,1.98462963 C439.008037,0.899907407 468.63213,3.90688889 498.256222,6.22359259 C514.67037,7.50553704 531.034556,8.5402963 547.448704,8.5402963" id="Stroke-43" stroke="#1A1918" stroke-width="3.218" sketch:type="MSShapeGroup"></path>
            <path d="M342.49537,211.07963 C359.797019,165.780315 377.097352,118.707315 390.701741,71.5843519 C393.807333,60.7897222 395.976778,47.3325926 398.539352,34.5170926 C401.201852,21.2571852 404.356093,8.68887037 409.432593,0.308240741" id="Stroke-44" stroke="#1A1918" stroke-width="3.445" sketch:type="MSShapeGroup"></path>
            <path d="M207.337667,213.938037 C210.147426,213.790778 212.957185,213.740815 215.766944,213.740815 C244.257667,213.938037 271.31787,221.97287 298.379389,220.493704 C320.708889,218.867278 341.114815,213.938037 363.444315,210.635222" id="Stroke-45" stroke="#1A1918" stroke-width="3.987" sketch:type="MSShapeGroup"></path>
            <path d="M340.277278,282.996056 C339.83287,282.354426 339.34113,281.812722 338.798111,281.271019 M342.052278,457.093315 C336.53137,431.461 337.713389,405.139722 340.621759,379.015667 C342.002315,366.593296 343.777315,354.270852 345.353778,342.095667 C346.881593,326.470407 349.938537,296.008778 340.375889,283.143315 M549.07513,8.5402963 C548.92787,16.9196111 548.92787,25.3488889 549.07513,33.6795556 C550.258463,128.368574 565.390667,220.642278 563.862852,315.774389 C563.862852,362.305685 550.209815,406.07587 549.07513,450.833481 C549.026481,452.361296 548.976519,453.937759 548.976519,455.466889 C548.92787,458.178037 548.976519,460.88787 549.07513,463.648981 M213.893333,292.804574 C213.893333,350.229111 213.893333,404.400796 230.307481,458.571167 M230.357444,458.719741 L230.357444,458.669778 M235.779741,458.669778 C235.68113,460.937833 235.483907,463.155926 235.286685,465.324056 M236.074259,451.227926 C236.025611,453.741852 235.927,456.155852 235.779741,458.522519 M244.652111,287.136407 C222.914278,327.653741 237.011722,399.964611 236.074259,450.783519 M245.145167,286.198944 C245.046556,286.347519 244.996593,286.494778 244.897981,286.643352 M236.074259,451.227926 L236.074259,450.783519" id="Stroke-46" stroke="#1A1918" stroke-width="3.749" sketch:type="MSShapeGroup"></path>
            <path d="M377.64037,457.141963 C330.122963,457.832241 282.901389,458.522519 235.779741,458.669778 L235.631167,458.669778 C233.857481,458.669778 232.13113,458.719741 230.357444,458.669778 C225.428204,458.719741 220.498963,458.719741 215.569722,458.719741 M548.976519,455.466889 C492.143648,455.466889 436.248241,456.304426 380.844574,457.093315 M548.976519,455.466889 L549.07513,455.466889 M377.64037,457.141963 L380.844574,457.093315" id="Stroke-47" stroke="#1A1918" stroke-width="5.794" sketch:type="MSShapeGroup"></path>
            <path d="M280.683296,285.361407 C300.055778,284.228037 319.328333,283.193278 338.848074,282.996056 L340.277278,282.996056 C341.953667,282.946093 343.678704,282.946093 345.353778,282.946093 M212.661352,287.875333 L213.844685,287.875333 C224.24487,287.82537 234.497796,287.5795 244.652111,287.136407 C244.79937,287.185056 244.947944,287.136407 245.095204,287.136407 C256.630074,286.692 268.065019,286.051685 279.402667,285.41137 M212.661352,287.875333 L212.266907,287.875333 M280.683296,285.361407 L279.402667,285.41137 M205.711241,217.190889 C208.964093,240.210667 208.964093,264.85687 208.964093,287.875333" id="Stroke-48" stroke="#1A1918" stroke-width="3.749" sketch:type="MSShapeGroup"></path>
            <path d="M23.3332778,360.127037 L23.3332778,360.175685 C19.9318519,362.739574 17.3193148,363.921593 15.2497963,364.168778 C5.43996296,365.302148 8.34833333,344.451815 8.49690741,333.262741 C59.0686296,338.98087 103.579056,330.207111 151.392296,329.023778 L151.490907,332.227981 C154.743759,343.712889 154.743759,353.57137 144.885278,358.500611 L133.301759,359.140926 C126.351648,358.549259 119.254278,358.253426 112.056981,358.106167 C87.806537,357.563148 62.6186296,359.189574 38.1196852,359.879852 C33.1417963,360.028426 28.2125556,360.127037 23.3332778,360.127037" id="Fill-49" fill="#1A1918" sketch:type="MSShapeGroup"></path>
            <path d="M133.696204,359.189574 L133.40037,362.097944 C133.40037,394.976204 128.47113,429.479574 130.097556,462.356519 L125.16963,462.356519 C116.001426,459.300889 112.056981,373.632815 112.056981,360.471519 L112.056981,358.106167 C119.254278,358.253426 126.351648,358.549259 133.301759,359.140926 C133.450333,359.140926 133.548944,359.189574 133.696204,359.189574" id="Fill-50" fill="#1A1918" sketch:type="MSShapeGroup"></path>
            <path d="M38.1196852,359.879852 C38.0223889,391.722037 36.296037,423.564222 31.5153704,455.45637 C26.5861296,457.082796 34.8181852,460.385611 24.9597037,462.012037 L21.6568889,457.082796 C21.6568889,447.421537 22.1012963,426.917 20.030463,414.396019 C16.8762222,395.469259 16.2345926,383.342722 15.2497963,364.168778 C17.3193148,363.921593 19.9318519,362.739574 23.3332778,360.175685 L23.3332778,360.127037 C28.2125556,360.127037 33.1417963,360.028426 38.1196852,359.879852" id="Fill-51" fill="#1A1918" sketch:type="MSShapeGroup"></path>
            <path d="M0.3135,332.227981 C3.07461111,332.622426 5.78575926,332.966907 8.49690741,333.262741 C59.0686296,338.98087 103.579056,330.207111 151.392296,329.023778 C154.695111,328.97513 157.996611,328.925167 161.349389,328.925167 M18.404037,360.175685 C20.030463,360.175685 21.6568889,360.175685 23.3332778,360.127037 C28.2125556,360.127037 33.1417963,360.028426 38.1196852,359.879852 C62.6186296,359.189574 87.806537,357.563148 112.056981,358.106167 C119.254278,358.253426 126.351648,358.549259 133.301759,359.140926 C133.450333,359.140926 133.548944,359.189574 133.696204,359.189574 C136.900407,359.436759 140.104611,359.781241 143.258852,360.175685 M151.490907,332.227981 C154.743759,343.712889 154.743759,353.57137 144.885278,358.500611 M8.54555556,332.227981 C8.54555556,332.572463 8.54555556,332.918259 8.49690741,333.262741 C8.34833333,344.451815 5.43996296,365.302148 15.2497963,364.168778 C17.3193148,363.921593 19.9318519,362.739574 23.3332778,360.175685 M133.40037,362.097944 C133.40037,394.976204 128.47113,429.479574 130.097556,462.356519 M112.056981,360.471519 C112.056981,373.632815 116.001426,459.300889 125.16963,462.356519 M21.6568889,457.082796 C21.6568889,447.421537 22.1012963,426.917 20.030463,414.396019 C16.8762222,395.469259 16.2345926,383.342722 15.2497963,364.168778 C15.1998333,363.379889 15.1498704,362.591 15.1012222,361.802111 M38.1196852,356.87287 L38.1196852,359.879852 C38.0223889,391.722037 36.296037,423.564222 31.5153704,455.45637 C26.5861296,457.082796 34.8181852,460.385611 24.9597037,462.012037" id="Stroke-52" stroke="#1A1918" stroke-width="3.749" sketch:type="MSShapeGroup"></path>
            <text id="Hannah’s-Studio" sketch:type="MSTextLayer" font-family="DIN Condensed" font-size="68" font-weight="bold" fill="#FFFFFF">
                <tspan x="219.650456" y="272.386595">Hannah’s Studio</tspan>
            </text>
        </g>
    </g>
</svg>